<?xml version="1.0" encoding="UTF-8" standalone="no"?>
<!-- Created with Inkscape (http://www.inkscape.org/) -->
<svg xmlns:dc="http://purl.org/dc/elements/1.1/" xmlns:cc="http://creativecommons.org/ns#" xmlns:rdf="http://www.w3.org/1999/02/22-rdf-syntax-ns#" xmlns:svg="http://www.w3.org/2000/svg" xmlns="http://www.w3.org/2000/svg" xmlns:sodipodi="http://sodipodi.sourceforge.net/DTD/sodipodi-0.dtd" xmlns:inkscape="http://www.inkscape.org/namespaces/inkscape" width="64" height="64" id="svg2" version="1.1" inkscape:version="0.48.4 r9939" sodipodi:docname="lighting_tower_old.svg" inkscape:export-filename="/home/keder/Изображения/defensive_tower.png" inkscape:export-xdpi="158.89655" inkscape:export-ydpi="158.89655">
  <defs id="defs4"/>
  <sodipodi:namedview id="base" pagecolor="#ffffff" bordercolor="#666666" borderopacity="1.0" inkscape:pageopacity="0.0" inkscape:pageshadow="2" inkscape:zoom="5.5999999" inkscape:cx="37.951665" inkscape:cy="43.330981" inkscape:document-units="px" inkscape:current-layer="layer1" showgrid="true" inkscape:window-width="1866" inkscape:window-height="1056" inkscape:window-x="54" inkscape:window-y="24" inkscape:window-maximized="1" inkscape:snap-global="true" inkscape:snap-bbox="true" inkscape:snap-bbox-midpoints="false" inkscape:snap-object-midpoints="false" inkscape:snap-nodes="true" inkscape:snap-grids="true" objecttolerance="20" guidetolerance="20" showguides="false">
    <inkscape:grid type="xygrid" id="grid4115" empspacing="5" visible="true" enabled="true" snapvisiblegridlinesonly="false" spacingx="1px" spacingy="1px" originx="0px" originy="0px" dotted="true"/>
  </sodipodi:namedview>
  <metadata id="metadata7">
    <rdf:RDF>
      <cc:Work rdf:about="">
        <dc:format>image/svg+xml</dc:format>
        <dc:type rdf:resource="http://purl.org/dc/dcmitype/StillImage"/>
        <dc:title/>
      </cc:Work>
    </rdf:RDF>
  </metadata>
  <g inkscape:label="Layer 1" inkscape:groupmode="layer" id="layer1" transform="translate(0,-988.3622)">
    <g id="g2998" transform="matrix(0.05907305,0,0,0.05907305,0.64665214,987.08629)">
      <path sodipodi:nodetypes="ccccc" transform="translate(0,28.3622)" inkscape:connector-curvature="0" id="path4237" d="m 480,992 0,-608 64,0 0,608 z" style="fill:#000000;stroke:none"/>
      <path sodipodi:nodetypes="cccccccccccccccccccccccccccccccccccccccccccccccccccc" inkscape:connector-curvature="0" id="path4241" d="m 721.04097,91.057258 37.5805,46.112042 -91.04622,292.48912 -303.16379,0.5817 -35.64043,-50.09148 83.39393,-289.683111 z m -1.27304,57.672232 -63.5,0 -19.38292,64 63.5,0 z m -95.5,0 -65.40625,0 -19.16417,64 65.1875,0 z m -97.40625,0 -63.09375,0 -19.38292,64 63.3125,0 z m 163.83187,96 -63.5,0 -19.38292,64 63.5,0 z m -95.5,0 -65.09375,0 -19.19542,64 64.90625,0 z m -97.09375,0 -63.40625,0 -19.38292,64 63.59375,0 z m 163.51937,96 -63.5,0 -19.38292,64 63.5,0 z m -95.5,0 -64.8125,0 -19.16417,64 64.59375,0 z m -96.8125,0 -63.6875,0 -19.38292,64 63.90625,0 z" style="fill:#000000;stroke:#000000;stroke-width:1px;stroke-linecap:butt;stroke-linejoin:miter;stroke-opacity:1"/>
    </g>
  </g>
</svg>